<svg id="图层_1" data-name="图层 1" xmlns="http://www.w3.org/2000/svg" viewBox="0 0 1800 485.56"><defs><style>.cls-1{fill:gray;}.cls-2{fill:#f9b76e;}.cls-3{fill:none;stroke:#000;stroke-miterlimit:10;}.cls-4{fill:#666;}</style></defs><title>画板 1</title><circle class="cls-1" cx="160" cy="102.78" r="45"/><circle class="cls-1" cx="160" cy="402.78" r="45"/><circle class="cls-1" cx="300" cy="252.78" r="45"/><circle class="cls-1" cx="440" cy="102.78" r="45"/><circle class="cls-1" cx="440" cy="402.78" r="45"/><path class="cls-2" d="M300,147.78c-40.57,0-95,59.57-95,105a45,45,0,1,1-46-45h0c41.66,0,97.09-62.22,96-105h0a45,45,0,1,1,45,45Z"/><path class="cls-3" d="M205,252.78a45,45,0,1,1-46-45h1"/><path class="cls-3" d="M255,102.78a45,45,0,1,1,45,45"/><path class="cls-3" d="M255,101.78c0,.33,0,.66,0,1,1.1,42.78-54.33,105-96,105"/><path class="cls-3" d="M205,252.78c0-45.43,54.43-105,95-105"/><path class="cls-2" d="M395,251.78a45,45,0,1,1,45,46c-52.51,0-95,47-95,105a45,45,0,1,1-45-45v0c31,2,95-60.54,95-106Z"/><path class="cls-3" d="M345,402.78a45,45,0,1,1-45-45"/><path class="cls-3" d="M395,252.78c0-.33,0-.67,0-1a45,45,0,1,1,45,46"/><path class="cls-3" d="M345,402.78c0-58,42.49-105,95-105"/><path class="cls-3" d="M395,251.78c0,45.41-64,108-95,106"/><path class="cls-4" d="M817.13,90.19H850.5V323h1.27L953.16,198.33h38l-76,91.25,86.6,136.87h-37.6L895.28,313.66,850.5,366v60.41H817.13Z"/><path class="cls-4" d="M1057.08,90.19h33.37V323h1.27L1193.1,198.33h38l-76,91.25,86.6,136.87h-37.6l-68.85-112.79L1090.45,366v60.41h-33.37Z"/><path class="cls-4" d="M1277.59,367.73c0-49.85,43.52-74.35,141.52-85.33.42-30.84-9.29-61.26-48.58-61.26-27.46,0-52,13.1-69.28,25.35l-13.94-24.08c19.86-13.1,52-30,88.71-30,55.34,0,77.31,37.59,77.31,92.51V426.45H1425l-3-27.88h-1.27c-22,18.58-48.16,33.37-76.88,33.37C1306.32,431.94,1277.59,409.13,1277.59,367.73Zm141.52,4.65V305.63c-80.68,9.29-108.14,28.73-108.14,60,0,27.45,19,38.44,42.24,38.44S1395.88,393.07,1419.11,372.38Z"/><path class="cls-4" d="M1531.48,126.09c0-14.78,10.56-23.65,24.92-23.65,13.52,0,24.92,8.87,24.92,23.65,0,13.52-11.4,23.24-24.92,23.24C1542,149.33,1531.48,139.61,1531.48,126.09Zm7.6,72.24h34.22V426.45h-34.22Z"/></svg>