<svg xmlns="http://www.w3.org/2000/svg" viewBox="0 0 1356.82 391"><defs><style>.cls-1{fill:gray;}.cls-2{fill:#f9b76e;}.cls-3{fill:none;stroke:#000;stroke-miterlimit:10;}.cls-4{fill:#666;}</style></defs><title>资源 3</title><g id="图层_2" data-name="图层 2"><g id="图层_1-2" data-name="图层 1"><circle class="cls-1" cx="45.5" cy="45.5" r="45"/><circle class="cls-1" cx="45.5" cy="345.5" r="45"/><circle class="cls-1" cx="185.5" cy="195.5" r="45"/><circle class="cls-1" cx="325.5" cy="45.5" r="45"/><circle class="cls-1" cx="325.5" cy="345.5" r="45"/><path class="cls-2" d="M185.5,90.5c-40.57,0-95,59.57-95,105a45,45,0,1,1-46-45h0c41.66,0,97.09-62.22,96-105h0a45,45,0,1,1,45,45Z"/><path class="cls-3" d="M90.5,195.5a45,45,0,1,1-46-45h1"/><path class="cls-3" d="M140.5,45.5a45,45,0,1,1,45,45"/><path class="cls-3" d="M140.45,44.5c0,.33,0,.66,0,1,1.1,42.78-54.33,105-96,105"/><path class="cls-3" d="M90.5,195.5c0-45.43,54.43-105,95-105"/><path class="cls-2" d="M280.51,194.5a45,45,0,1,1,45,46c-52.51,0-95,47-95,105a45,45,0,1,1-45-45v-.05c31,2,95-60.54,95-105.95Z"/><path class="cls-3" d="M230.5,345.5a45,45,0,1,1-45-45"/><path class="cls-3" d="M280.5,195.5c0-.33,0-.67,0-1a45,45,0,1,1,45,46"/><path class="cls-3" d="M230.5,345.5c0-58,42.49-105,95-105"/><path class="cls-3" d="M280.5,194.5c0,45.41-64,108-95,106"/><path class="cls-4" d="M592.63,32.9H626V265.67h1.27L728.66,141.05h38l-76,91.25,86.6,136.87h-37.6L670.78,256.38,626,308.76v60.41H592.63Z"/><path class="cls-4" d="M832.58,32.9H866V265.67h1.27L968.6,141.05h38l-76,91.25,86.6,136.87h-37.6L910.73,256.38,866,308.76v60.41H832.58Z"/><path class="cls-4" d="M1053.09,310.45c0-49.85,43.52-74.35,141.52-85.34.42-30.83-9.29-61.25-48.58-61.25-27.46,0-52,13.1-69.28,25.35l-13.94-24.08c19.86-13.1,52-30,88.71-30,55.34,0,77.31,37.6,77.31,92.52V369.17h-28.3l-3-27.88h-1.27c-22,18.58-48.16,33.37-76.88,33.37C1081.82,374.66,1053.09,351.85,1053.09,310.45Zm141.52,4.64V248.35c-80.68,9.29-108.14,28.72-108.14,60,0,27.46,19,38.45,42.24,38.45S1171.38,335.79,1194.61,315.09Z"/><path class="cls-4" d="M1307,68.81c0-14.78,10.56-23.66,24.92-23.66,13.52,0,24.92,8.88,24.92,23.66,0,13.52-11.4,23.24-24.92,23.24C1317.54,92.05,1307,82.33,1307,68.81Zm7.6,72.24h34.22V369.17h-34.22Z"/></g></g></svg>