<svg xmlns="http://www.w3.org/2000/svg" viewBox="0 0 371 391"><defs><style>.cls-1{fill:gray;}.cls-2{fill:#f9b76e;}.cls-3{fill:none;stroke:#000;stroke-miterlimit:10;}</style></defs><title>资源 1</title><g id="图层_2" data-name="图层 2"><g id="图层_1-2" data-name="图层 1"><circle class="cls-1" cx="45.5" cy="45.5" r="45"/><circle class="cls-1" cx="45.5" cy="345.5" r="45"/><circle class="cls-1" cx="185.5" cy="195.5" r="45"/><circle class="cls-1" cx="325.5" cy="45.5" r="45"/><circle class="cls-1" cx="325.5" cy="345.5" r="45"/><path class="cls-2" d="M185.5,90.5c-40.57,0-95,59.57-95,105a45,45,0,1,1-46-45h0c41.66,0,97.09-62.22,96-105h0a45,45,0,1,1,45,45Z"/><path class="cls-3" d="M90.5,195.5a45,45,0,1,1-46-45h1"/><path class="cls-3" d="M140.5,45.5a45,45,0,1,1,45,45"/><path class="cls-3" d="M140.45,44.5c0,.33,0,.66,0,1,1.1,42.78-54.33,105-96,105"/><path class="cls-3" d="M90.5,195.5c0-45.43,54.43-105,95-105"/><path class="cls-2" d="M280.51,194.5a45,45,0,1,1,45,46c-52.51,0-95,47-95,105a45,45,0,1,1-45-45v-.05c31,2,95-60.54,95-105.95Z"/><path class="cls-3" d="M230.5,345.5a45,45,0,1,1-45-45"/><path class="cls-3" d="M280.5,195.5c0-.33,0-.67,0-1a45,45,0,1,1,45,46"/><path class="cls-3" d="M230.5,345.5c0-58,42.49-105,95-105"/><path class="cls-3" d="M280.5,194.5c0,45.41-64,108-95,106"/></g></g></svg>